<svg width="75" height="40" viewBox="0 0 75 40" fill="none" xmlns="http://www.w3.org/2000/svg">
<path d="M9.33594 16.4062L17.5977 8.20312C18.418 7.39583 18.9258 6.84896 19.1211 6.5625C19.3294 6.26302 19.4336 5.9375 19.4336 5.58594C19.4336 4.94792 19.1211 4.46615 18.4961 4.14062C18.1706 3.98438 17.6237 3.86719 16.8555 3.78906V3.33984H25.2734V3.78906C24.7005 3.84115 24.2188 3.9388 23.8281 4.08203C23.4505 4.21224 23.0339 4.4401 22.5781 4.76562C22.0703 5.13021 21.1979 5.90495 19.9609 7.08984L13.6328 13.1641L22.6367 24.6484L23.75 26.0742C24.5703 27.0898 25.4232 27.8841 26.3086 28.457C26.8424 28.8086 27.3112 29.0625 27.7148 29.2188C28.1185 29.362 28.6263 29.4727 29.2383 29.5508V30H16.3281V29.5508C17.3047 29.4727 18.0078 29.3099 18.4375 29.0625C18.8672 28.8151 19.082 28.4505 19.082 27.9688C19.082 27.4479 18.8151 26.7839 18.2812 25.9766C18.0208 25.5859 17.5326 24.9089 16.8164 23.9453C16.1003 22.9818 15.4948 22.2005 15 21.6016L10.6055 16.1523L9.33594 17.4023V23.8672C9.33594 25.1953 9.40755 26.1849 9.55078 26.8359C9.70703 27.474 9.98698 28.0013 10.3906 28.418C10.7422 28.7826 11.1458 29.056 11.6016 29.2383C12.0703 29.4076 12.6823 29.5117 13.4375 29.5508V30H0.957031V29.5508C1.71224 29.5117 2.31771 29.4076 2.77344 29.2383C3.24219 29.056 3.65234 28.7826 4.00391 28.418C4.42057 28.0013 4.70052 27.474 4.84375 26.8359C4.98698 26.1979 5.05859 25.2083 5.05859 23.8672V9.47266C5.05859 8.13151 4.98698 7.14193 4.84375 6.50391C4.70052 5.86589 4.42057 5.33854 4.00391 4.92188C3.65234 4.54427 3.24219 4.27083 2.77344 4.10156C2.30469 3.93229 1.69922 3.82812 0.957031 3.78906V3.33984H13.4375V3.78906C12.6953 3.82812 12.0898 3.93229 11.6211 4.10156C11.1654 4.27083 10.7552 4.54427 10.3906 4.92188C9.98698 5.33854 9.70703 5.8724 9.55078 6.52344C9.40755 7.16146 9.33594 8.14453 9.33594 9.47266V16.4062Z" fill="#292635"/>
<path d="M74.1445 30H61.3125V29.5508C62.4714 29.4466 63.2786 29.2513 63.7344 28.9648C64.5417 28.457 64.9453 27.7539 64.9453 26.8555C64.9453 26.3216 64.763 25.6055 64.3984 24.707L64.0664 23.8867L62.1914 19.2773H53.5977L52.582 21.9727L52.0938 23.1836C51.5078 24.6159 51.2148 25.7422 51.2148 26.5625C51.2148 27.0443 51.319 27.4935 51.5273 27.9102C51.7487 28.3268 52.0417 28.6654 52.4062 28.9258C52.9141 29.2773 53.5651 29.4857 54.3594 29.5508V30H45.6094V29.5508C46.2995 29.5117 46.9049 29.3424 47.4258 29.043C47.9466 28.7435 48.4544 28.2617 48.9492 27.5977C49.3659 27.0638 49.7695 26.3802 50.1602 25.5469C50.5638 24.7005 51.0911 23.4375 51.7422 21.7578L58.8906 3.33984H60.0039L68.5 23.8672C69.138 25.4167 69.6458 26.5234 70.0234 27.1875C70.401 27.8516 70.8112 28.3529 71.2539 28.6914C71.5664 28.9258 71.9245 29.1081 72.3281 29.2383C72.7318 29.3555 73.3372 29.4596 74.1445 29.5508V30ZM61.8789 18.4766L57.7773 8.35938L53.9102 18.4766H61.8789Z" fill="#292635"/>
<rect x="37" y="3" width="1" height="27" fill="#292635"/>
</svg>
